<svg xmlns="http://www.w3.org/2000/svg" xml:space="preserve" viewBox="0 0 291.31 291.31">
  <path fill="#d99666" d="M9.099 0h273.112L254.9 263.999 154.759 291.31h-18.207L36.41 263.999 9.099 0z"/>
  <path fill="#f4b459" d="M145.655 27.302h100.141l-18.207 209.386-81.933 27.311c-.001 0-.001-236.697-.001-236.697z"/>
  <path fill="#fff" d="m218.649 81.806 2.867-27.193H63.43l3.186 27.193 2.914 36.597h-.037l2.759 27.238h105.976l-3.641 43.334-28.932 9.14v-.282l-38.472-10.169-2.358-23.879H72.698l4.315 43.862v1.793l68.642 18.144 57.563-18.144h.701l.018-.246.127-.018v-1.438l5.208-62.097h.118l2.768-27.238H102.94l-2.913-36.597z"/>
  <path fill="#e5e5e5" d="M145.655 54.613H63.43l3.186 27.193 2.914 36.597h-.037l2.759 27.238h73.403v-27.238H102.94l-2.913-36.597h45.628zm0 143.22-38.472-10.169-2.358-23.879H72.698l4.315 43.862v1.793l68.642 18.144v-29.469z"/>
</svg>